# xmcd
#
# Track frame offsets:
#	150
#	12827
#	24763
#	35691
#	50456
#	64192
#	74915
#	88903
#	102573
#	114710
#	128897
#	142696
#	154407
#	166371
#
# Disc length: 2375 seconds
#
# Revision: 1
# Processed by: cddbd v1.5.1PL2 Copyright (c) Steve Scherf et al.
# Submitted via: audiograbber 1.82.02
#
DISCID=c609450e
DTITLE=Little Jimmy Dickens - Old Time Gospel
DYEAR=1900
DGENRE=Gospel
TTITLE0=No Tears In Heaven
TTITLE1=He Spoke Not A Word
TTITLE2=That Little Old Country Church House
TTITLE3=Take Up Thy Cross
TTITLE4=Just A Closer Walk With Thee
TTITLE5=The Old Country Preacher
TTITLE6=Take Thy Precious Lord
TTITLE7=I Shall Not Be Moved
TTITLE8=Brother Do You Take Time To Pray
TTITLE9=Alone With God
TTITLE10=I'm Braver Now
TTITLE11=Are You Insured Beyond The Grave
TTITLE12=They Locked God Outside The Iron Curtain
TTITLE13=The Old Country Church
EXTD=
EXTT0=
EXTT1=
EXTT2=
EXTT3=
EXTT4=
EXTT5=
EXTT6=
EXTT7=
EXTT8=
EXTT9=
EXTT10=
EXTT11=
EXTT12=
EXTT13=
PLAYORDER=
